Input #0, mov,mp4,m4a,3gp,3g2,mj2, from '/home/hbattu/projects/huberman-gpt/huberman-audio/mp3/tmpa5j84xwf.mp4':
  Metadata:
    major_brand     : dash
    minor_version   : 0
    compatible_brands: iso6mp41
    creation_time   : 2022-09-21T13:37:16.000000Z
  Duration: 01:53:36.84, start: 0.000000, bitrate: 129 kb/s
    Stream #0:0(eng): Audio: aac (LC) (mp4a / 0x6134706D), 44100 Hz, stereo, fltp, 0 kb/s (default)
    Metadata:
      creation_time   : 2022-09-21T13:37:16.000000Z
      handler_name    : ISO Media file produced by Google Inc.
Stream mapping:
  Stream #0:0 -> #0:0 (aac (native) -> mp3 (libmp3lame))
Press [q] to stop, [?] for help
[graph_0_in_0_0 @ 0x55bfcfb41ec0] tb:1/44100 samplefmt:fltp samplerate:44100 chlayout:0x3
Output #0, mp3, to '../huberman-audio/mp3/uXs-zPc63kM.mp3':
  Metadata:
    major_brand     : dash
    minor_version   : 0
    compatible_brands: iso6mp41
    TSSE            : Lavf58.29.100
    Stream #0:0(eng): Audio: mp3 (libmp3lame), 44100 Hz, stereo, fltp, delay 1105 (default)
    Metadata:
      creation_time   : 2022-09-21T13:37:16.000000Z
      handler_name    : ISO Media file produced by Google Inc.
      encoder         : Lavc58.54.100 libmp3lame
No more output streams to write to, finishing.
size=  106514kB time=01:53:36.86 bitrate= 128.0kbits/s speed=95.4x    
[AVIOContext @ 0x55bfcfa33900] Statistics: 0 seeks, 143 writeouts
video:0kB audio:106514kB subtitle:0kB other streams:0kB global headers:0kB muxing overhead: 0.000317%
Input file #0 (/home/hbattu/projects/huberman-gpt/huberman-audio/mp3/tmpa5j84xwf.mp4):
  Input stream #0:0 (audio): 293577 packets read (109069514 bytes); 293577 frames decoded (300622848 samples); 
  Total: 293577 packets (109069514 bytes) demuxed
Output file #0 (../huberman-audio/mp3/uXs-zPc63kM.mp3):
  Output stream #0:0 (audio): 260958 frames encoded (300622848 samples); 260959 packets muxed (109070210 bytes); 
  Total: 260959 packets (109070210 bytes) muxed
[AVIOContext @ 0x55bfcfa5a900] Statistics: 2 seeks, 418 writeouts
[AVIOContext @ 0x55bfcfa3c880] Statistics: 110323714 bytes read, 0 seeks
